<?xml version="1.0" standalone="no"?>
<!DOCTYPE svg PUBLIC "-//W3C//DTD SVG 20010904//EN"
 "http://www.w3.org/TR/2001/REC-SVG-20010904/DTD/svg10.dtd">
<svg version="1.0" xmlns="http://www.w3.org/2000/svg"
 width="261.000000pt" height="343.000000pt" viewBox="0 0 261.000000 343.000000"
 preserveAspectRatio="xMidYMid meet">

<g transform="translate(0.000000,343.000000) scale(0.100000,-0.100000)"
fill="#000000" stroke="none">
<path d="M768 3392 l-158 -3 0 -59 0 -59 -62 -3 -63 -3 0 -435 c0 -239 2 -444
4 -454 4 -18 23 -19 745 -13 408 4 760 7 784 7 l42 0 0 450 c0 353 -3 450 -12
451 -7 0 -36 0 -65 -1 l-52 -1 -3 63 -3 63 -500 0 c-275 0 -571 -1 -657 -3z
m-18 -591 l0 -329 -65 -1 -65 -1 -1 213 c0 116 0 262 -1 322 0 61 0 113 1 118
1 4 30 7 66 7 l65 0 0 -329z"/>
<path d="M490 2135 l0 -95 -230 0 -231 0 3 -67 3 -68 1235 4 c679 2 1238 5
1243 8 4 2 7 33 7 69 l0 64 -230 0 -230 0 0 90 0 90 -785 0 -785 0 0 -95z"/>
<path d="M820 1715 l0 -65 -130 0 -130 0 0 -65 0 -65 -66 0 -67 0 5 -655 4
-655 -63 0 -63 0 0 -70 0 -70 65 0 64 0 3 68 3 67 57 -2 c32 -1 60 2 63 7 3 5
6 300 6 655 l-1 645 60 0 60 0 0 -65 c0 -72 -2 -71 92 -66 l37 3 3 -64 3 -63
130 0 130 0 3 63 c3 56 5 62 25 64 12 1 31 2 42 3 11 1 30 3 43 4 22 1 22 3
22 136 l0 134 -52 -3 c-74 -6 -78 -3 -78 65 l0 59 -135 0 -135 0 0 -65z m140
-131 c0 -57 -3 -67 -20 -71 -13 -4 -20 -14 -21 -32 l0 -26 -10 23 c-5 13 -7
27 -5 30 2 4 -15 7 -37 7 l-42 0 -3 54 c-5 79 -2 81 73 81 l65 0 0 -66z m122
-44 c1 -55 2 -110 2 -122 1 -21 -4 -23 -64 -26 -53 -2 -62 0 -50 10 8 7 21 25
29 41 8 15 20 27 26 27 22 0 36 25 23 38 -10 10 -9 17 1 34 10 16 10 23 2 26
-6 2 -11 10 -11 18 0 8 -15 23 -32 34 l-33 20 53 0 52 0 2 -100z m-216 -148
c-10 -2 -22 0 -28 6 -6 6 0 7 19 4 21 -5 23 -7 9 -10z m71 2 c-3 -3 -12 -4
-19 -1 -8 3 -5 6 6 6 11 1 17 -2 13 -5z"/>
<path d="M1565 1743 c-11 -3 -26 -14 -33 -24 -7 -11 -19 -19 -26 -19 -35 0
-43 -100 -13 -155 6 -11 11 -24 12 -30 0 -5 11 -10 25 -10 15 0 24 -5 22 -13
-3 -17 20 -40 44 -44 10 -2 25 -11 32 -20 7 -10 31 -23 53 -29 22 -7 45 -21
50 -32 8 -14 19 -18 40 -15 33 5 36 1 12 -18 -15 -11 -15 -13 -3 -14 20 0 53
-38 45 -50 -4 -6 -16 -10 -28 -11 -22 0 -22 0 1 -10 22 -8 43 -6 95 8 14 4 17
11 12 33 -5 24 -3 28 19 32 25 5 56 -17 56 -39 0 -24 58 -60 106 -66 l49 -6
-43 20 c-46 22 -62 43 -43 62 9 9 16 9 31 -1 11 -6 29 -12 41 -12 49 0 82 -49
43 -64 -9 -4 -14 -9 -11 -13 4 -3 2 -12 -5 -20 -8 -10 -8 -17 0 -25 8 -8 8
-15 1 -24 -13 -16 22 -28 52 -19 28 9 21 -16 -9 -30 -11 -5 -23 -19 -26 -31
-4 -13 -15 -26 -26 -29 -15 -5 -19 -12 -15 -26 4 -13 2 -19 -9 -19 -9 0 -16
-6 -16 -14 0 -8 -9 -18 -20 -21 -23 -7 -26 -36 -8 -65 10 -15 10 -22 0 -32 -9
-9 -12 -9 -12 0 0 7 -4 12 -9 12 -12 0 -44 -99 -37 -116 3 -7 1 -16 -4 -19 -6
-4 -10 -15 -10 -26 0 -21 -16 -26 -23 -6 -2 6 -2 26 1 44 2 18 2 40 -2 49 -6
15 -9 15 -31 -6 l-25 -23 0 24 c0 14 5 30 11 36 7 7 3 9 -14 6 -14 -3 -27 -14
-30 -24 -6 -21 -27 -26 -27 -7 0 6 7 19 16 29 19 21 11 39 -19 39 -15 0 -18 3
-10 8 17 11 -14 55 -32 48 -17 -6 -95 31 -95 45 0 6 -5 7 -10 4 -16 -10 -29
37 -16 58 9 14 7 21 -10 35 -12 9 -24 25 -28 35 -3 11 -16 21 -28 25 -19 4
-19 6 -5 17 14 10 12 16 -20 50 -20 21 -44 39 -53 40 -9 0 -32 12 -51 26 -35
25 -79 35 -79 18 0 -6 -4 -7 -10 -4 -5 3 -10 2 -10 -4 0 -6 -38 -10 -92 -9
-104 0 -110 -1 -156 -26 -19 -9 -41 -15 -49 -11 -13 4 -14 3 -4 -9 9 -11 9
-16 1 -21 -7 -4 -10 -15 -7 -24 2 -9 -2 -22 -9 -29 -19 -17 -22 -15 -18 16 l4
27 -10 -29 c-5 -16 -7 -33 -5 -36 7 -11 18 -81 17 -103 0 -10 6 -21 14 -24 8
-3 14 -11 14 -18 0 -8 11 -22 23 -32 13 -10 24 -25 25 -33 1 -8 4 -31 5 -50 2
-19 7 -47 11 -61 5 -18 3 -29 -5 -34 -8 -6 -10 -4 -4 5 5 8 4 11 -3 6 -6 -4
-9 -13 -6 -21 4 -8 10 -13 14 -10 9 5 20 -29 20 -62 0 -13 5 -23 10 -23 6 0
10 -9 10 -19 0 -11 12 -33 26 -50 14 -17 23 -35 19 -41 -3 -5 -1 -10 4 -10 6
0 11 -14 11 -30 0 -26 -6 -32 -39 -46 -40 -16 -71 -50 -71 -79 0 -8 -9 -23
-20 -32 -21 -18 -28 -77 -11 -87 5 -3 12 -27 16 -53 14 -98 80 -156 183 -161
31 -2 60 2 68 9 9 8 18 8 27 2 24 -20 82 -2 127 38 25 21 49 39 53 39 5 0 5 6
1 13 -6 9 -4 9 7 1 8 -6 25 -8 39 -3 14 4 19 7 13 8 -18 1 -16 41 4 63 15 17
15 19 -2 38 -18 19 -17 20 3 20 12 0 26 -9 32 -19 6 -13 17 -17 30 -14 11 3
20 8 20 12 0 4 15 25 34 46 19 21 34 41 34 44 -2 8 11 40 30 80 9 19 16 38 15
42 -1 4 5 13 14 21 12 9 15 9 9 1 -4 -7 -2 -21 3 -30 9 -16 10 -16 11 4 0 12
5 25 10 28 7 4 3 14 -11 26 l-21 18 26 12 c14 7 26 18 26 26 0 7 6 13 13 13
20 0 47 33 47 58 0 27 15 36 40 22 13 -7 20 -19 18 -33 -6 -44 84 -16 120 37
19 28 21 38 13 55 -10 17 -9 20 4 15 8 -4 23 -3 33 2 20 9 28 11 43 13 8 1 10
19 5 61 -5 40 -3 60 4 60 5 0 10 9 10 20 0 11 4 20 9 20 6 0 4 12 -4 27 -16
30 -4 55 23 51 19 -4 34 46 26 85 -5 24 -3 27 19 27 23 0 25 3 21 36 -3 20 -7
41 -11 47 -3 6 -1 7 6 3 8 -6 10 -1 6 17 -4 14 -1 36 6 49 7 12 12 27 11 31
-1 4 6 11 15 14 30 11 42 36 36 74 -3 22 -1 39 6 43 6 4 11 16 11 27 0 25 -50
129 -62 129 -5 0 -19 10 -31 23 -38 37 -80 62 -85 49 -2 -7 -12 -12 -22 -12
-30 0 -32 -17 -5 -38 36 -29 31 -34 -22 -27 l-48 7 28 -27 c16 -15 26 -33 23
-41 -3 -8 0 -14 6 -14 6 0 3 -8 -6 -19 -12 -13 -14 -21 -6 -26 8 -5 7 -11 -2
-22 -10 -12 -9 -18 6 -28 17 -13 17 -14 -2 -33 -19 -19 -20 -19 -63 15 -40 31
-41 34 -16 29 16 -3 25 -1 22 5 -4 5 -12 9 -20 9 -7 0 -22 11 -33 25 -23 29
-32 32 -32 10 0 -8 -4 -15 -10 -15 -5 0 -9 -8 -8 -17 1 -10 0 -28 0 -41 -2
-19 -5 -21 -20 -13 -10 5 -26 9 -37 8 -12 -1 -21 5 -23 18 -2 11 -11 29 -21
39 -15 18 -15 19 1 13 22 -8 31 6 15 24 -7 8 -11 13 -10 10 1 -2 -4 -10 -12
-18 -9 -9 -12 -21 -7 -36 5 -12 6 -37 3 -56 -5 -31 -7 -32 -20 -18 -7 9 -11
23 -8 31 3 7 1 18 -5 24 -6 6 -12 23 -14 39 -8 56 -11 69 -29 111 -9 23 -21
42 -27 42 -5 0 -7 4 -4 8 12 19 -66 82 -101 82 -10 0 -38 11 -63 24 -27 14
-56 22 -73 19 -18 -2 -26 0 -22 7 3 5 5 9 3 9 -2 -1 -12 -4 -23 -6z m680 -606
c22 -40 28 -80 12 -74 -7 3 -11 10 -9 16 1 6 -7 30 -18 53 -11 23 -20 43 -20
45 0 12 21 -12 35 -40z m-627 -82 c-3 -3 -9 2 -12 12 -6 14 -5 15 5 6 7 -7 10
-15 7 -18z m-412 -205 c0 -12 -4 -16 -9 -11 -5 5 -6 14 -3 20 10 15 12 14 12
-9z m24 -59 c0 -15 -28 -33 -40 -26 -8 5 -8 11 1 21 13 15 39 19 39 5z m286
-426 c-1 -72 -4 -83 -20 -68 -4 4 -15 8 -24 8 -9 0 -17 5 -17 10 0 6 -3 15 -7
21 -4 6 -5 27 -2 46 6 32 27 50 65 57 4 1 6 -33 5 -74z m14 -133 c0 -7 -4 -10
-10 -7 -5 3 -10 16 -10 28 0 18 2 19 10 7 5 -8 10 -21 10 -28z"/>
<path d="M2124 1545 c9 -13 25 -20 45 -20 17 0 31 3 31 6 0 15 -38 37 -62 36
-25 -2 -26 -4 -14 -22z"/>
<path d="M1907 1553 c-7 -7 18 -59 33 -68 6 -4 10 6 10 24 0 29 -29 59 -43 44z"/>
<path d="M2471 1334 c0 -11 3 -14 6 -6 3 7 2 16 -1 19 -3 4 -6 -2 -5 -13z"/>
<path d="M2474 1278 c11 -64 13 -109 5 -114 -15 -9 -10 -21 12 -27 38 -10 52
74 22 138 -22 46 -48 48 -39 3z"/>
<path d="M1330 1290 c0 -5 5 -10 11 -10 5 0 7 5 4 10 -3 6 -8 10 -11 10 -2 0
-4 -4 -4 -10z"/>
<path d="M2398 1248 c-3 -7 1 -19 9 -26 7 -7 13 -31 13 -53 0 -46 16 -52 25
-10 10 48 -34 130 -47 89z"/>
<path d="M322 1191 c-17 -48 -15 -72 3 -37 9 17 14 39 13 50 -3 17 -6 14 -16
-13z"/>
<path d="M1120 831 c0 -25 6 -27 13 -6 4 8 2 17 -3 20 -6 4 -10 -3 -10 -14z"/>
<path d="M900 786 c-9 -11 -9 -20 0 -36 15 -29 10 -32 -24 -15 -25 13 -27 13
-22 0 3 -10 -1 -18 -12 -22 -9 -4 -20 -12 -25 -19 -4 -7 -14 -11 -21 -8 -11 4
-13 -7 -11 -52 3 -53 5 -58 34 -70 17 -7 31 -18 31 -24 0 -11 56 -70 67 -70 4
0 -7 15 -24 33 -50 53 -49 74 3 125 37 36 50 43 71 37 14 -3 27 -15 30 -25 3
-11 9 -20 14 -20 5 0 9 -7 9 -16 0 -9 15 -36 33 -61 l32 -45 8 48 c5 27 9 86
11 132 l2 83 -25 -7 c-37 -10 -64 -7 -76 9 -17 23 -45 28 -68 12 -27 -19 -48
-20 -22 -2 11 9 14 16 8 20 -6 4 -16 0 -23 -7z"/>
<path d="M616 617 c3 -10 9 -15 12 -12 3 3 0 11 -7 18 -10 9 -11 8 -5 -6z"/>
<path d="M920 599 c0 -5 5 -7 10 -4 6 3 10 8 10 11 0 2 -4 4 -10 4 -5 0 -10
-5 -10 -11z"/>
<path d="M1965 571 c-7 -12 -8 -12 23 -15 13 -2 21 2 19 8 -5 15 -34 19 -42 7z"/>
<path d="M1056 273 c-6 -14 -5 -15 5 -6 7 7 10 15 7 18 -3 3 -9 -2 -12 -12z"/>
<path d="M1025 269 c-4 -6 -5 -12 -2 -15 2 -3 7 2 10 11 7 17 1 20 -8 4z"/>
</g>
</svg>
